<?xml version="1.0" standalone="no"?>
<!DOCTYPE svg PUBLIC "-//W3C//DTD SVG 20010904//EN"
 "http://www.w3.org/TR/2001/REC-SVG-20010904/DTD/svg10.dtd">
<svg version="1.0" xmlns="http://www.w3.org/2000/svg"
 width="500.000000pt" height="500.000000pt" viewBox="0 0 500.000000 500.000000"
 preserveAspectRatio="xMidYMid meet">
<metadata>
Created by potrace 1.14, written by Peter Selinger 2001-2017
</metadata>
<g transform="translate(0.000000,500.000000) scale(0.100000,-0.100000)"
fill="#000000" stroke="none">
<path d="M1293 4496 c-103 -33 -185 -106 -232 -205 l-26 -56 0 -1735 0 -1735
32 -67 c40 -84 97 -141 181 -181 l67 -32 1180 0 1180 0 57 23 c80 32 150 99
190 180 l33 67 0 1745 0 1745 -28 56 c-34 70 -109 142 -185 177 l-57 27 -1175
2 c-952 1 -1183 -1 -1217 -11z m2307 -2001 l0 -1645 -1100 0 -1100 0 0 1645 0
1645 1100 0 1100 0 0 -1645z"/>
<path d="M1780 3951 c-69 -22 -140 -82 -176 -151 -18 -32 -19 -68 -22 -459 -2
-374 -1 -431 14 -477 21 -67 67 -121 135 -159 l54 -30 695 0 c562 0 704 3 743
14 62 18 134 82 163 146 24 50 24 50 24 476 0 466 -2 480 -59 550 -16 19 -53
48 -82 64 l-54 30 -705 2 c-388 1 -716 -2 -730 -6z m1426 -204 l24 -28 0 -402
c0 -439 1 -432 -57 -456 -21 -8 -204 -11 -691 -9 l-662 3 -27 28 -28 27 0 404
c0 390 1 405 20 426 11 12 29 26 40 31 11 4 321 7 688 6 l669 -2 24 -28z"/>
<path d="M2345 2486 c-276 -63 -489 -269 -561 -542 -24 -93 -24 -264 0 -359
89 -344 410 -576 764 -552 315 21 584 246 663 555 26 102 26 253 -1 356 -64
251 -259 454 -508 528 -87 26 -273 33 -357 14z m317 -394 c79 -39 130 -92 171
-181 27 -57 31 -76 30 -146 -1 -162 -89 -288 -242 -346 -73 -27 -202 -24 -273
8 -54 24 -131 92 -164 144 -91 144 -64 343 62 460 86 79 145 100 264 97 73 -3
95 -8 152 -36z"/>
</g>
</svg>
